<svg width="170" height="26" viewBox="0 0 170 26" fill="none" xmlns="http://www.w3.org/2000/svg">
<g clip-path="url(#clip0_3_485)">
<path d="M0.0116162 17.1112L2.47965e-05 17.6141C2.47965e-05 19.6609 -0.0115666 21.7077 2.47965e-05 23.7544C2.47965e-05 24.772 0.718694 25.6375 1.72715 25.6726C3.11812 25.731 4.50909 25.696 5.91166 25.696C6.92011 25.696 7.81265 24.772 7.77788 23.6024C7.7431 22.2924 7.80106 20.9825 7.81265 19.6726C7.82424 17.8948 7.84743 16.1053 7.85902 14.3275C7.85902 14.0001 7.90538 13.9416 8.21835 13.8597C8.91384 13.6609 9.6441 13.6375 10.3628 13.7895C11.6726 14.0702 12.6231 15.0878 12.7622 16.4211C12.8317 17.0878 12.8317 17.7661 12.8433 18.4328C12.8665 20.1872 12.8781 21.9533 12.9013 23.7077C12.9129 24.8772 13.7475 25.7193 14.9066 25.7193C16.1469 25.731 17.3988 25.731 18.6391 25.731C19.8098 25.731 20.656 24.9006 20.656 23.7077C20.6676 20.0936 20.6676 16.4796 20.6676 12.8656V12.7018C20.6328 12.3275 20.4937 12.0001 20.1575 11.8012C19.9257 11.6609 19.6823 11.5556 19.4157 11.4854C18.4072 11.2398 17.364 11.193 16.344 11.3568C15.5557 11.4737 14.7791 11.6726 13.9909 11.8363C12.9708 12.0585 11.916 12.117 10.8728 12.0234C9.52818 11.8831 8.35745 11.31 7.25626 10.5381C6.73465 10.1755 6.21303 9.82462 5.66824 9.48544C5.00753 9.07608 4.27726 8.94742 3.51223 8.90064C2.70083 8.85386 1.87784 8.83047 1.07803 9.0176C0.440499 9.16965 0.115939 9.54392 0.0463905 10.1755C0.0347991 10.3158 0.0232077 10.4445 0.0232077 10.5849C0.0116162 12.7603 0.0116162 14.9357 0.0116162 17.1112ZM3.89475 7.8831C6.05075 7.89479 7.80106 6.12871 7.81265 3.95327C7.82424 1.77783 6.07394 0.0117537 3.91793 5.77589e-05C1.76192 -0.0116381 0.0116162 1.75444 2.47965e-05 3.92988V3.94158C2.47965e-05 6.10532 1.73874 7.8714 3.89475 7.8831ZM20.5516 5.96497C20.5632 3.78953 18.8129 2.02345 16.6569 2.01175C14.5009 2.00006 12.7506 3.76614 12.739 5.94158C12.7274 8.11701 14.4777 9.8831 16.6337 9.89479C18.8013 9.89479 20.5401 8.14041 20.5516 5.96497ZM44.1634 25.6492H39.7007V17.8363H31.9228V25.6492H27.4717V6.57316H31.9344V13.8597H39.7123V6.57316H44.1634V25.6492ZM52.7295 13.9884C51.3501 13.9884 50.3764 14.7018 50.2257 16.0702H46.2035C46.389 13.4153 48.9391 11.041 53.0888 11.041C57.111 11.041 59.4293 12.6784 59.3482 16.9942L59.3018 20.0702C59.2786 21.9182 59.3482 24.4445 59.6148 25.6492H55.3955L55.3375 23.9416C54.2943 25.4386 52.6251 25.9884 50.6198 25.9884C47.9538 25.9884 45.763 24.4094 45.763 21.8246C45.763 18.3509 49.6461 17.193 55.1057 16.7954V16.2574C55.0941 14.5965 54.2711 13.9884 52.7295 13.9884ZM52.1731 23.0527C53.8886 23.0527 55.1984 22.3158 55.1984 19.7077V19.3685C52.1963 19.6258 50.1909 20.0234 50.1909 21.5322C50.1909 22.4445 51.0603 23.0527 52.1731 23.0527ZM70.6035 11.1813C74.1968 11.1813 75.3212 13.31 75.3212 17.1579V25.6609H71.0208V18.234C71.0208 16.2106 70.9396 14.5498 68.8531 14.5498C67.0217 14.5498 66.2451 15.7895 66.2451 18.3977V25.6609H61.9331V11.4971H66.2335V13.3685C66.871 12.3041 68.4127 11.1813 70.6035 11.1813ZM91.9781 25.6492H87.6777V23.7544C86.7619 25.31 84.9189 25.9884 83.3772 25.9884C79.7839 25.9884 77.199 23.2047 77.199 18.5615C77.199 13.9182 79.7839 11.1696 83.3772 11.1696C84.9189 11.1696 86.7735 11.8597 87.6777 13.4036V6.57316H91.9781V25.6492ZM84.7798 22.6316C86.4721 22.6316 87.8863 21.4971 87.8863 18.5848C87.8863 15.6726 86.4721 14.5615 84.7798 14.5615C83.0643 14.5615 81.6501 15.9533 81.6501 18.5848C81.6501 21.2164 83.0527 22.6316 84.7798 22.6316ZM100.672 14.2808C99.2111 14.2808 98.4229 14.6784 98.4229 15.3334C98.4229 15.9884 98.9213 16.3626 100.15 16.5965L102.758 17.0644C106.154 17.696 107.742 18.7018 107.742 21.193C107.742 24.3743 104.845 25.9884 100.961 25.9884C97.2522 25.9884 94.5745 24.3509 94.0761 21.041H98.0636C98.4229 22.4094 99.5241 22.8305 101.008 22.8305C102.526 22.8305 103.616 22.4094 103.616 21.5673C103.616 20.9357 103.036 20.5381 101.425 20.2574L98.9213 19.8363C96.2089 19.3919 94.3543 17.9884 94.3543 15.4971C94.3543 12.655 97.2985 11.1229 100.776 11.1229C103.987 11.1229 106.885 12.4328 107.429 15.6492H103.407C103.152 14.5965 102.028 14.2808 100.672 14.2808ZM123.171 17.1463V25.6492H118.87V18.2223C118.87 16.1989 118.824 14.5381 116.726 14.5381C114.894 14.5381 114.095 15.7778 114.095 18.386V25.6492H109.794V6.57316H114.095V13.3685C114.72 12.3158 116.262 11.1813 118.453 11.1813C122.046 11.1813 123.171 13.31 123.171 17.1463ZM132.026 13.9884C130.647 13.9884 129.685 14.7018 129.523 16.0702H125.5C125.686 13.4153 128.236 11.041 132.386 11.041C136.408 11.041 138.726 12.6784 138.645 16.9942L138.599 20.0702C138.576 21.9182 138.645 24.4445 138.912 25.6492H134.693L134.646 23.9416C133.603 25.4386 131.934 25.9884 129.928 25.9884C127.262 25.9884 125.072 24.4094 125.072 21.8246C125.072 18.3509 128.955 17.193 134.414 16.7954V16.2574C134.403 14.5965 133.568 13.9884 132.026 13.9884ZM131.482 23.0527C133.209 23.0527 134.507 22.3158 134.507 19.7077V19.3685C131.505 19.6258 129.5 20.0234 129.5 21.5322C129.5 22.4445 130.357 23.0527 131.482 23.0527ZM145.565 16.8889L150.283 11.4971H155.372L150.364 16.924L155.789 25.6609H150.758L147.443 20.0819L145.565 22.1053V25.6609H141.265V6.57316H145.565V16.8889Z" fill="black"/>
<path d="M162.941 25.9999C158.374 25.9999 155.244 23.1812 155.244 18.5028C155.244 13.9765 158.664 11.0759 162.755 11.0759C167.404 11.0759 170.267 14.6549 169.977 19.6841H159.568C159.695 21.6841 161.237 22.6315 162.802 22.6315C164.425 22.6315 165.468 22.0467 165.955 21.2046H169.919C168.679 24.5496 165.758 25.9999 162.941 25.9999ZM165.7 17.0525C165.653 15.2865 164.367 14.3976 162.755 14.3976C161.248 14.3976 159.858 15.1929 159.626 17.0525H165.7Z" fill="black"/>
</g>
<defs>
<clipPath id="clip0_3_485">
<rect width="170" height="26" fill="white"/>
</clipPath>
</defs>
</svg>
